Coordinates
version=1
nRows=8
nColumns=63
inDegrees=yes

Units are S.I. units (second, meters, Newtons, ...)
If the header above contains a line with 'inDegrees', this indicates whether rotational values are in degrees (yes) or radians (no).

endheader
time	pelvis_tilt	pelvis_list	pelvis_rotation	pelvis_tx	pelvis_ty	pelvis_tz	hip_flexion_r	hip_adduction_r	hip_rotation_r	knee_angle_r	knee_angle_r_beta	ankle_angle_r	subtalar_angle_r	mtp_angle_r	hip_flexion_l	hip_adduction_l	hip_rotation_l	knee_angle_l	knee_angle_l_beta	ankle_angle_l	subtalar_angle_l	mtp_angle_l	L5_S1_Flex_Ext	L5_S1_Lat_Bending	L5_S1_axial_rotation	L4_L5_Flex_Ext	L4_L5_Lat_Bending	L4_L5_axial_rotation	L3_L4_Flex_Ext	L3_L4_Lat_Bending	L3_L4_axial_rotation	L2_L3_Flex_Ext	L2_L3_Lat_Bending	L2_L3_axial_rotation	L1_L2_Flex_Ext	L1_L2_Lat_Bending	L1_L2_axial_rotation	L1_T12_Flex_Ext	L1_T12_Lat_Bending	L1_T12_axial_rotation	Abs_r3	Abs_r2	Abs_r1	Abs_t1	Abs_t2	neck_flexion	neck_bending	neck_rotation	arm_flex_r	arm_add_r	arm_rot_r	elbow_flex_r	pro_sup_r	wrist_flex_r	wrist_dev_r	arm_flex_l	arm_add_l	arm_rot_l	elbow_flex_l	pro_sup_l	wrist_flex_l	wrist_dev_l
3.944444	4.232085	-2.466667	85.407800	0.197097	0.769653	0.788221	11.879577	4.451465	2.829870	24.485626	0.427355	36.320198	-7.450228	0.000000	6.377980	-3.641199	-13.429900	14.638444	0.255489	41.459545	12.023239	0.000000	-0.053997	0.756155	0.529312	-0.100279	1.005686	0.562394	-0.088712	1.838516	0.562394	-0.061714	1.838516	0.463148	-0.050142	1.541952	0.430066	-0.030854	1.171284	0.396984	-0.385698	8.553779	2.943875	0.000000	0.000000	17.673998	0.211004	9.179357	-18.455535	-19.194041	2.532294	44.159088	74.549805	-11.841203	-10.482670	-16.596691	2.730632	-48.370973	123.916922	64.186222	13.358595	-2.074093
3.962963	4.171089	-2.144213	86.045738	0.196539	0.771075	0.786874	11.189270	4.232205	2.149647	24.128644	0.421124	36.126120	-7.247112	0.000000	5.866987	-3.486416	-13.177969	14.428410	0.251823	41.081711	12.284990	0.000000	-0.068239	0.729037	0.582436	-0.126727	0.969619	0.618838	-0.112110	1.772580	0.618838	-0.077990	1.772580	0.509631	-0.063367	1.486651	0.473229	-0.038992	1.129278	0.436827	-0.487425	8.247008	3.239332	0.000000	0.000000	16.576122	0.205984	8.203585	-20.010328	-18.644677	-0.935897	48.296324	78.430300	-12.134980	-11.418451	-17.414769	3.024927	-47.893780	124.442299	63.217401	13.318809	-2.543626
3.981481	4.095792	-1.787148	86.702392	0.195998	0.772449	0.785319	10.460436	4.015941	1.533712	23.797121	0.415338	36.003968	-7.081969	0.000000	5.354573	-3.321278	-12.804290	14.287876	0.249370	40.774537	12.455064	0.000000	-0.081911	0.702057	0.620694	-0.152117	0.933735	0.659488	-0.134572	1.706980	0.659488	-0.093616	1.706980	0.543108	-0.076063	1.431634	0.504314	-0.046804	1.087486	0.465521	-0.585084	7.941804	3.452116	0.000000	0.000000	15.360921	0.251834	7.357963	-21.433307	-18.133081	-3.215520	52.442608	81.259639	-12.326113	-12.616807	-18.067758	2.788094	-47.009630	125.304068	63.053465	12.462711	-3.260644
4.000000	4.023541	-1.408368	87.415950	0.195381	0.773679	0.783609	9.719564	3.818693	0.945439	23.504387	0.410229	35.967840	-6.983201	0.000000	4.900021	-3.171923	-12.308033	14.276764	0.249177	40.606971	12.612234	0.000000	-0.094861	0.678229	0.645143	-0.176167	0.902045	0.685465	-0.155847	1.649047	0.685465	-0.108417	1.649047	0.564501	-0.088088	1.383045	0.524179	-0.054204	1.050577	0.483858	-0.677584	7.672265	3.588094	0.000000	0.000000	14.101568	0.308865	6.616889	-22.945483	-17.632034	-5.680720	56.760293	84.166561	-12.562624	-13.469044	-18.565971	2.034546	-45.703852	126.504810	63.628762	10.655701	-4.204914
4.018519	3.928908	-1.012906	88.210697	0.194655	0.774712	0.781785	8.989873	3.601681	0.323574	23.274267	0.406213	36.057349	-6.902109	0.000000	4.535365	-2.998396	-11.600160	14.413257	0.251559	40.592430	12.686338	0.000000	-0.107634	0.653426	0.651132	-0.199887	0.869056	0.691827	-0.176832	1.588739	0.691827	-0.123015	1.588739	0.569740	-0.099949	1.332465	0.529045	-0.061502	1.012156	0.488349	-0.768819	7.391681	3.621399	0.000000	0.000000	12.852753	0.417579	5.934949	-24.386009	-17.139375	-7.288444	61.002946	86.076447	-12.729391	-14.078548	-18.975604	0.805900	-44.103664	128.045458	64.811433	8.037871	-5.272860
4.037037	3.793215	-0.610413	89.075220	0.193854	0.775488	0.779873	8.299879	3.349535	-0.314204	23.126327	0.403631	36.297180	-6.845051	0.000000	4.279632	-2.785850	-10.709580	14.704382	0.256640	40.749665	12.697742	0.000000	-0.120769	0.624530	0.642992	-0.224281	0.830625	0.683179	-0.198412	1.518482	0.683179	-0.138027	1.518482	0.562618	-0.112146	1.273541	0.522431	-0.069008	0.967397	0.482244	-0.862643	7.064805	3.576129	0.000000	0.000000	11.672723	0.566639	5.258148	-25.732847	-16.649946	-7.941676	65.027078	86.824803	-12.832484	-14.451493	-19.358665	-0.802287	-42.376880	129.906686	66.479033	4.891331	-6.322900
4.055556	3.632936	-0.210659	89.970104	0.193025	0.775946	0.777864	7.667761	3.088086	-0.925097	23.069189	0.402633	36.696706	-6.811075	0.000000	4.137290	-2.574822	-9.791825	15.168458	0.264740	41.124322	12.779948	0.000000	-0.135878	0.593071	0.628784	-0.252340	0.788784	0.668083	-0.223235	1.441992	0.668083	-0.155295	1.441992	0.550186	-0.126177	1.209390	0.510887	-0.077641	0.918667	0.471588	-0.970566	6.708935	3.497109	0.000000	0.000000	10.644750	0.756649	4.570105	-27.096355	-16.149676	-8.435212	68.825773	87.285533	-12.859467	-14.417151	-19.758598	-2.620185	-40.730470	132.049002	68.418778	1.697692	-7.215102
4.074074	3.446430	0.165590	90.894046	0.192151	0.776056	0.775731	7.120199	2.811062	-1.509882	23.104998	0.403258	37.261511	-6.790558	0.000000	4.121443	-2.350059	-8.774282	15.793135	0.275642	41.677269	12.807066	0.000000	-0.151807	0.559598	0.594186	-0.281920	0.744265	0.631323	-0.249403	1.360606	0.631323	-0.173500	1.360606	0.519913	-0.140968	1.141132	0.482776	-0.086742	0.866817	0.445640	-1.084339	6.330281	3.304687	0.000000	0.000000	9.809126	0.976858	3.982510	-28.413928	-15.691568	-8.726771	72.335110	87.534675	-12.750055	-13.928114	-20.249194	-4.437889	-39.430301	134.377884	70.578723	-1.149310	-8.082289
